<svg width="477" height="179" viewBox="0 0 477 179" fill="none" xmlns="http://www.w3.org/2000/svg">
<g clip-path="url(#clip0_154_621)">
<rect width="477" height="179" fill="white"/>
<g filter="url(#filter0_d_154_621)">
<path d="M444.325 86.3603L435.643 93.5937C435.208 93.9586 435.018 94.472 435.127 94.9714L437.458 104.946C437.758 106.205 436.16 107.195 434.764 106.622L423.705 102.07C423.153 101.847 422.499 101.855 421.954 102.1L411.123 107.002C409.754 107.62 408.121 106.682 408.347 105.416L410.198 95.3732C410.298 94.8667 410.081 94.3603 409.627 94.0104L400.601 87.0681C399.467 86.1888 400.039 84.6247 401.581 84.4154L413.782 82.7546C414.399 82.6728 414.916 82.3448 415.188 81.8833L419.614 74.1355L420.439 72.691C421.102 71.5286 423.098 71.4987 423.814 72.6382L423.832 72.6611L429.511 81.652C429.793 82.1066 430.327 82.4116 430.945 82.4784L443.218 83.7375C444.769 83.902 445.423 85.4512 444.325 86.3603ZM76.4526 86.3603L67.7631 93.5937C67.3272 93.9586 67.1367 94.472 67.2544 94.9714L69.5864 104.946C69.8766 106.205 68.2887 107.195 66.8914 106.622L55.8335 102.07C55.2799 101.847 54.6268 101.855 54.083 102.1L46.6803 105.453L43.2521 107.002C41.8815 107.62 40.2402 106.682 40.4757 105.416L41.3377 100.759L42.327 95.3732C42.4169 94.8667 42.2081 94.3603 41.7552 94.0104L38.4169 91.4474L32.7295 87.0681C31.8858 86.4191 31.9756 85.3993 32.7113 84.8251C32.965 84.6167 33.3 84.4682 33.7091 84.4154L45.9094 82.7546C46.5261 82.6728 47.0432 82.3448 47.3067 81.8833L52.5595 72.691C53.2308 71.5286 55.2265 71.4987 55.9428 72.6382L61.6301 81.652C61.9203 82.1066 62.4557 82.4116 63.0723 82.4784L75.3466 83.7375C76.8884 83.902 77.5512 85.4512 76.4526 86.3603ZM477 61.5089L473.952 56.9502L472.972 55.4897L471.331 53.0463L473.952 49.1355L477 44.5768L476.093 43.228L472.972 44.3166L471.331 41.8732L473.262 38.9972L471.258 35.9876L473.952 29.2018V28.8588L471.258 24.8135L471.276 24.7766C453.704 24.33 439.581 13.9375 439.581 1.22916V0H37.419V1.22916C37.419 14.2206 22.6597 24.7916 4.54383 24.7916H3.04704V29.2018L5.74202 35.9876L3.04704 40.033L0 44.5768L3.04704 49.1355L5.66917 53.0463L3.04704 56.9502L0 61.5089L3.04704 66.0527L5.66917 69.9645L3.04704 73.8823L0 78.4341L3.04704 82.9858L5.66917 86.8966L3.04704 90.7995L0 95.3592L3.04704 99.918L5.66917 103.821L3.04704 107.733L0 112.291L3.04704 116.842L5.66917 120.754L3.04704 124.665L0 129.215L3.04704 133.775L5.66917 137.678L3.04704 141.597L0.008506 146.149L3.04704 150.811V154.208H4.54383C22.6597 154.208 37.419 164.778 37.419 177.771V179H439.581V177.771C439.581 164.778 454.339 154.208 472.455 154.208H473.952V150.811L476.99 146.149L473.952 141.597L471.331 137.678L473.952 133.775L477 129.215L473.952 124.665L471.331 120.754L473.952 116.842L477 112.291L473.952 107.733L471.331 103.821L473.952 99.918L477 95.3592L473.952 90.7995L471.331 86.8966L473.952 82.9858L477 78.4341L473.952 73.8823L471.331 69.9645L473.952 66.0527L477 61.5089Z" fill="#36684B"/>
</g>
</g>
<defs>
<filter id="filter0_d_154_621" x="-4" y="0" width="485" height="187" filterUnits="userSpaceOnUse" color-interpolation-filters="sRGB">
<feFlood flood-opacity="0" result="BackgroundImageFix"/>
<feColorMatrix in="SourceAlpha" type="matrix" values="0 0 0 0 0 0 0 0 0 0 0 0 0 0 0 0 0 0 127 0" result="hardAlpha"/>
<feOffset dy="4"/>
<feGaussianBlur stdDeviation="2"/>
<feComposite in2="hardAlpha" operator="out"/>
<feColorMatrix type="matrix" values="0 0 0 0 0 0 0 0 0 0 0 0 0 0 0 0 0 0 0.25 0"/>
<feBlend mode="normal" in2="BackgroundImageFix" result="effect1_dropShadow_154_621"/>
<feBlend mode="normal" in="SourceGraphic" in2="effect1_dropShadow_154_621" result="shape"/>
</filter>
<clipPath id="clip0_154_621">
<rect width="477" height="179" fill="white"/>
</clipPath>
</defs>
</svg>
